<svg width="32" height="32" viewBox="0 0 48 48" fill="none" xmlns="http://www.w3.org/2000/svg">
  <!-- Vault door circle -->
  <circle cx="22" cy="24" r="20" stroke="#1a2b4a" stroke-width="3" fill="none"/>
  <circle cx="22" cy="24" r="13" stroke="#1a2b4a" stroke-width="2" fill="none"/>
  <!-- Cross handle -->
  <line x1="14" y1="24" x2="30" y2="24" stroke="#1a2b4a" stroke-width="2.5" stroke-linecap="round"/>
  <line x1="22" y1="16" x2="22" y2="32" stroke="#1a2b4a" stroke-width="2.5" stroke-linecap="round"/>
  <!-- Locking dots -->
  <circle cx="22" cy="17.5" r="1.5" fill="#1a2b4a"/>
  <circle cx="22" cy="30.5" r="1.5" fill="#1a2b4a"/>
  <circle cx="14.5" cy="24" r="1.5" fill="#1a2b4a"/>
  <circle cx="29.5" cy="24" r="1.5" fill="#1a2b4a"/>
  <!-- Airplane -->
  <g transform="translate(31, 8) rotate(-30)">
    <path d="M0 5 L12 3 L14 5 L12 7 L0 5Z" fill="#FF6B35"/>
    <path d="M4 5 L7 0 L9 0 L7 5Z" fill="#FF6B35"/>
    <path d="M4 5 L7 10 L9 10 L7 5Z" fill="#FF6B35"/>
    <path d="M0 5 L-1 2.5 L1 2.5Z" fill="#FF6B35"/>
    <path d="M0 5 L-1 7.5 L1 7.5Z" fill="#FF6B35"/>
  </g>
</svg>